<svg width="200" height="200" fill="none" xmlns="http://www.w3.org/2000/svg"><path d="M200 100a100 100 0 1 1-200 0 100 100 0 0 1 200 0Z" fill="#fff"/><path d="M126 158.3H73.8v6.5H126v-6.5ZM132.1 76.7l2.3-11.5H65.6l2.3 11.5H50V81a41.3 41.3 0 0 0 29.3 39.8c3.9 5.2 9.7 9.2 16.4 10.5v9.7H80.3v10.8h39.2V141h-15.2v-9.7a26.9 26.9 0 0 0 16.4-10.5A42 42 0 0 0 150 81v-4.3h-17.9ZM59 85.3h10.7l4.8 23.8a33.5 33.5 0 0 1-15.5-23.8Zm41.1 39.9v-6.5c6 0 11.4-5.3 12.5-10.3l6.4 1.5a20.3 20.3 0 0 1-18.9 15.3Zm25.6-16 4.8-23.9h10.7c-1.4 9.8-7.1 18.7-15.5 23.8Z" fill="#000"/></svg>